<?xml version="1.0" encoding="UTF-8"?>
<!DOCTYPE svg PUBLIC "-//W3C//DTD SVG 1.1//EN" "http://www.w3.org/Graphics/SVG/1.1/DTD/svg11.dtd">
<svg xmlns="http://www.w3.org/2000/svg" version="1.1" width="109px" height="119px" style="shape-rendering:geometricPrecision; text-rendering:geometricPrecision; image-rendering:optimizeQuality; fill-rule:evenodd; clip-rule:evenodd" xmlns:xlink="http://www.w3.org/1999/xlink">
<g><path style="opacity:1" fill="#284e92" d="M -0.5,-0.5 C 35.8333,-0.5 72.1667,-0.5 108.5,-0.5C 108.5,39.1667 108.5,78.8333 108.5,118.5C 72.1667,118.5 35.8333,118.5 -0.5,118.5C -0.5,78.8333 -0.5,39.1667 -0.5,-0.5 Z"/></g>
<g><path style="opacity:1" fill="#2e65a8" d="M 78.5,23.5 C 78.1667,23.5 77.8333,23.5 77.5,23.5C 74.3915,23.2641 71.3915,23.5975 68.5,24.5C 69.6936,23.2227 71.3603,22.5561 73.5,22.5C 75.3693,22.5068 77.036,22.8401 78.5,23.5 Z"/></g>
<g><path style="opacity:1" fill="#3453a1" d="M 39.5,23.5 C 37.1667,23.5 34.8333,23.5 32.5,23.5C 29.3189,24.3485 26.6523,26.0152 24.5,28.5C 24.9126,25.5849 26.5793,23.7516 29.5,23C 33.0267,22.1925 36.3601,22.3592 39.5,23.5 Z"/></g>
<g><path style="opacity:1" fill="#7a6df5" d="M 31.5,25.5 C 33.1992,25.3398 34.8659,25.5065 36.5,26C 39.9409,28.0539 43.6076,29.5539 47.5,30.5C 49.7221,31.6876 52.0554,32.6876 54.5,33.5C 56.228,35.8774 58.5614,37.544 61.5,38.5C 61.8333,39.1667 62.1667,39.8333 62.5,40.5C 64.6291,42.9501 67.2957,44.6167 70.5,45.5C 72.6854,45.7036 74.6854,46.3702 76.5,47.5C 77.5,49.1667 78.8333,50.5 80.5,51.5C 81.2653,54.0961 81.5987,56.7628 81.5,59.5C 79.1667,61.8333 76.8333,64.1667 74.5,66.5C 72.3071,67.6805 69.9738,68.6805 67.5,69.5C 66.7025,69.9569 66.3691,70.6236 66.5,71.5C 65.1667,71.5 64.5,72.1667 64.5,73.5C 61.1466,74.0613 58.1466,75.3947 55.5,77.5C 54.8728,78.4168 54.5394,79.4168 54.5,80.5C 54.1667,80.5 53.8333,80.5 53.5,80.5C 50.8508,82.14 48.1841,83.8067 45.5,85.5C 43.1478,86.566 40.8144,87.7327 38.5,89C 35.1508,89.3876 31.8175,89.2209 28.5,88.5C 28.573,86.9731 27.9063,85.9731 26.5,85.5C 26.5,84.8333 26.5,84.1667 26.5,83.5C 26.3334,65.8302 26.5001,48.1635 27,30.5C 28.0386,29.7562 28.5386,28.7562 28.5,27.5C 28.9731,26.0937 29.9731,25.427 31.5,25.5 Z"/></g>
<g><path style="opacity:1" fill="#4ab5fb" d="M 77.5,25.5 C 79.153,25.6596 80.4863,26.3263 81.5,27.5C 83.393,34.9319 84.0597,42.5986 83.5,50.5C 80.5713,45.937 76.4046,42.937 71,41.5C 68.4797,37.8236 64.9797,36.1569 60.5,36.5C 59.8333,35.8333 59.1667,35.1667 58.5,34.5C 59.2648,32.071 60.9315,30.7377 63.5,30.5C 66.1161,29.5202 68.4494,28.0202 70.5,26C 72.8098,25.5034 75.1432,25.3367 77.5,25.5 Z"/></g>
<g><path style="opacity:1" fill="#6e68e6" d="M 32.5,23.5 C 34.8333,23.5 37.1667,23.5 39.5,23.5C 41.7198,26.287 44.3864,28.6203 47.5,30.5C 43.6076,29.5539 39.9409,28.0539 36.5,26C 34.8659,25.5065 33.1992,25.3398 31.5,25.5C 31.8333,24.8333 32.1667,24.1667 32.5,23.5 Z"/></g>
<g><path style="opacity:1" fill="#3b88ce" d="M 68.5,25.5 C 66.6397,26.9387 64.973,28.6053 63.5,30.5C 60.9315,30.7377 59.2648,32.071 58.5,34.5C 57.5084,34.6716 56.8417,34.3382 56.5,33.5C 59.5119,29.5744 63.5119,26.9077 68.5,25.5 Z"/></g>
<g><path style="opacity:1" fill="#44a3e8" d="M 77.5,23.5 C 77.5,24.1667 77.5,24.8333 77.5,25.5C 75.1432,25.3367 72.8098,25.5034 70.5,26C 68.4494,28.0202 66.1161,29.5202 63.5,30.5C 64.973,28.6053 66.6397,26.9387 68.5,25.5C 68.5,25.1667 68.5,24.8333 68.5,24.5C 71.3915,23.5975 74.3915,23.2641 77.5,23.5 Z"/></g>
<g><path style="opacity:1" fill="#4158b1" d="M 39.5,23.5 C 43.9193,25.4006 48.2527,27.5672 52.5,30C 53.7101,31.0391 54.7101,32.2058 55.5,33.5C 55.1667,33.5 54.8333,33.5 54.5,33.5C 52.0554,32.6876 49.7221,31.6876 47.5,30.5C 44.3864,28.6203 41.7198,26.287 39.5,23.5 Z"/></g>
<g><path style="opacity:1" fill="#525ec5" d="M 32.5,23.5 C 32.1667,24.1667 31.8333,24.8333 31.5,25.5C 29.9731,25.427 28.9731,26.0937 28.5,27.5C 27.5416,27.9528 26.7083,28.6195 26,29.5C 25.1713,47.6714 25.338,65.6714 26.5,83.5C 26.5,84.1667 26.5,84.8333 26.5,85.5C 25.8333,85.1667 25.1667,84.8333 24.5,84.5C 24.5,65.8333 24.5,47.1667 24.5,28.5C 26.6523,26.0152 29.3189,24.3485 32.5,23.5 Z"/></g>
<g><path style="opacity:1" fill="#6665dd" d="M 28.5,27.5 C 28.5386,28.7562 28.0386,29.7562 27,30.5C 26.5001,48.1635 26.3334,65.8302 26.5,83.5C 25.338,65.6714 25.1713,47.6714 26,29.5C 26.7083,28.6195 27.5416,27.9528 28.5,27.5 Z"/></g>
<g><path style="opacity:1" fill="#3983c8" d="M 77.5,23.5 C 77.8333,23.5 78.1667,23.5 78.5,23.5C 81.0934,24.7536 83.4268,26.4202 85.5,28.5C 85.5,47.5 85.5,66.5 85.5,85.5C 83.4268,87.5798 81.0934,89.2464 78.5,90.5C 79.92,88.2911 81.5867,86.2911 83.5,84.5C 84.6621,66.338 84.8288,48.0046 84,29.5C 83.2917,28.6195 82.4584,27.9528 81.5,27.5C 80.4863,26.3263 79.153,25.6596 77.5,25.5C 77.5,24.8333 77.5,24.1667 77.5,23.5 Z"/></g>
<g><path style="opacity:1" fill="#2d5fa3" d="M 85.5,28.5 C 86.1174,28.6107 86.6174,28.944 87,29.5C 87.6667,47.5 87.6667,65.5 87,83.5C 86.7216,84.4158 86.2216,85.0825 85.5,85.5C 85.5,66.5 85.5,47.5 85.5,28.5 Z"/></g>
<g><path style="opacity:1" fill="#618bf2" d="M 54.5,33.5 C 54.8333,33.5 55.1667,33.5 55.5,33.5C 55.8333,33.5 56.1667,33.5 56.5,33.5C 56.8417,34.3382 57.5084,34.6716 58.5,34.5C 59.1667,35.1667 59.8333,35.8333 60.5,36.5C 60.8333,37.1667 61.1667,37.8333 61.5,38.5C 58.5614,37.544 56.228,35.8774 54.5,33.5 Z"/></g>
<g><path style="opacity:1" fill="#3553a2" d="M 24.5,28.5 C 24.5,47.1667 24.5,65.8333 24.5,84.5C 23.1684,75.859 22.5017,66.859 22.5,57.5C 22.6667,48.5 22.8333,39.5 23,30.5C 23.2784,29.5842 23.7784,28.9175 24.5,28.5 Z"/></g>
<g><path style="opacity:1" fill="#6788f6" d="M 61.5,38.5 C 63.0269,38.427 64.0269,39.0937 64.5,40.5C 63.8333,40.5 63.1667,40.5 62.5,40.5C 62.1667,39.8333 61.8333,39.1667 61.5,38.5 Z"/></g>
<g><path style="opacity:1" fill="#707bf6" d="M 62.5,40.5 C 63.1667,40.5 63.8333,40.5 64.5,40.5C 66.0618,40.7329 67.3951,41.3995 68.5,42.5C 69.1667,43.5 69.8333,44.5 70.5,45.5C 67.2957,44.6167 64.6291,42.9501 62.5,40.5 Z"/></g>
<g><path style="opacity:1" fill="#50acfa" d="M 60.5,36.5 C 64.9797,36.1569 68.4797,37.8236 71,41.5C 76.4046,42.937 80.5713,45.937 83.5,50.5C 83.5,54.8333 83.5,59.1667 83.5,63.5C 80.3992,68.222 76.0658,71.222 70.5,72.5C 71.1667,71.5 71.8333,70.5 72.5,69.5C 74.8525,68.6597 76.8525,67.3264 78.5,65.5C 78.8333,64.5 79.5,63.8333 80.5,63.5C 81.1174,63.3893 81.6174,63.056 82,62.5C 82.6667,59.1667 82.6667,55.8333 82,52.5C 81.6174,51.944 81.1174,51.6107 80.5,51.5C 80.1667,49.1667 78.8333,47.8333 76.5,47.5C 74.7969,44.368 72.1302,42.7014 68.5,42.5C 67.3951,41.3995 66.0618,40.7329 64.5,40.5C 64.0269,39.0937 63.0269,38.427 61.5,38.5C 61.1667,37.8333 60.8333,37.1667 60.5,36.5 Z"/></g>
<g><path style="opacity:1" fill="#5e96f8" d="M 68.5,42.5 C 72.1302,42.7014 74.7969,44.368 76.5,47.5C 74.6854,46.3702 72.6854,45.7036 70.5,45.5C 69.8333,44.5 69.1667,43.5 68.5,42.5 Z"/></g>
<g><path style="opacity:1" fill="#638ff8" d="M 76.5,47.5 C 78.8333,47.8333 80.1667,49.1667 80.5,51.5C 78.8333,50.5 77.5,49.1667 76.5,47.5 Z"/></g>
<g><path style="opacity:1" fill="#648ef8" d="M 80.5,51.5 C 81.1174,51.6107 81.6174,51.944 82,52.5C 82.6667,55.8333 82.6667,59.1667 82,62.5C 81.6174,63.056 81.1174,63.3893 80.5,63.5C 80.8333,62.1667 81.1667,60.8333 81.5,59.5C 81.5987,56.7628 81.2653,54.0961 80.5,51.5 Z"/></g>
<g><path style="opacity:1" fill="#7179f6" d="M 81.5,59.5 C 81.1667,60.8333 80.8333,62.1667 80.5,63.5C 79.5,63.8333 78.8333,64.5 78.5,65.5C 77.1667,65.8333 75.8333,66.1667 74.5,66.5C 76.8333,64.1667 79.1667,61.8333 81.5,59.5 Z"/></g>
<g><path style="opacity:1" fill="#429ce2" d="M 81.5,27.5 C 82.4584,27.9528 83.2917,28.6195 84,29.5C 84.8288,48.0046 84.6621,66.338 83.5,84.5C 83.5,77.5 83.5,70.5 83.5,63.5C 83.5,59.1667 83.5,54.8333 83.5,50.5C 84.0597,42.5986 83.393,34.9319 81.5,27.5 Z"/></g>
<g><path style="opacity:1" fill="#4ab5fb" d="M 83.5,63.5 C 83.5,70.5 83.5,77.5 83.5,84.5C 81.5867,86.2911 79.92,88.2911 78.5,90.5C 75.9407,90.8016 73.6074,90.4682 71.5,89.5C 69.0246,86.7589 66.0246,84.7589 62.5,83.5C 62.6399,81.8762 61.9733,80.7096 60.5,80C 64.4286,78.212 67.762,75.712 70.5,72.5C 76.0658,71.222 80.3992,68.222 83.5,63.5 Z"/></g>
<g><path style="opacity:1" fill="#707af6" d="M 74.5,66.5 C 73.8333,67.5 73.1667,68.5 72.5,69.5C 71.391,69.5569 70.391,69.8902 69.5,70.5C 68.391,70.5569 67.391,70.8902 66.5,71.5C 66.3691,70.6236 66.7025,69.9569 67.5,69.5C 69.9738,68.6805 72.3071,67.6805 74.5,66.5 Z"/></g>
<g><path style="opacity:1" fill="#5e96f8" d="M 78.5,65.5 C 76.8525,67.3264 74.8525,68.6597 72.5,69.5C 73.1667,68.5 73.8333,67.5 74.5,66.5C 75.8333,66.1667 77.1667,65.8333 78.5,65.5 Z"/></g>
<g><path style="opacity:1" fill="#599dfa" d="M 72.5,69.5 C 71.8333,70.5 71.1667,71.5 70.5,72.5C 69.8333,72.5 69.1667,72.5 68.5,72.5C 68.8333,71.8333 69.1667,71.1667 69.5,70.5C 70.391,69.8902 71.391,69.5569 72.5,69.5 Z"/></g>
<g><path style="opacity:1" fill="#6788f7" d="M 69.5,70.5 C 69.1667,71.1667 68.8333,71.8333 68.5,72.5C 67.2921,73.2341 65.9587,73.5674 64.5,73.5C 64.5,72.1667 65.1667,71.5 66.5,71.5C 67.391,70.8902 68.391,70.5569 69.5,70.5 Z"/></g>
<g><path style="opacity:1" fill="#6c7df3" d="M 64.5,73.5 C 64.1667,74.5 63.5,75.1667 62.5,75.5C 60.2512,76.0798 58.5846,77.4131 57.5,79.5C 56.8333,79.5 56.5,79.8333 56.5,80.5C 55.8333,80.5 55.1667,80.5 54.5,80.5C 54.5394,79.4168 54.8728,78.4168 55.5,77.5C 58.1466,75.3947 61.1466,74.0613 64.5,73.5 Z"/></g>
<g><path style="opacity:1" fill="#599df8" d="M 62.5,75.5 C 61.4154,77.5869 59.7488,78.9202 57.5,79.5C 58.5846,77.4131 60.2512,76.0798 62.5,75.5 Z"/></g>
<g><path style="opacity:1" fill="#4aaaf4" d="M 68.5,72.5 C 69.1667,72.5 69.8333,72.5 70.5,72.5C 67.762,75.712 64.4286,78.212 60.5,80C 61.9733,80.7096 62.6399,81.8762 62.5,83.5C 61.609,82.8902 60.609,82.5569 59.5,82.5C 57.9731,82.573 56.9731,81.9063 56.5,80.5C 56.5,79.8333 56.8333,79.5 57.5,79.5C 59.7488,78.9202 61.4154,77.5869 62.5,75.5C 63.5,75.1667 64.1667,74.5 64.5,73.5C 65.9587,73.5674 67.2921,73.2341 68.5,72.5 Z"/></g>
<g><path style="opacity:1" fill="#4d5cbf" d="M 53.5,80.5 C 53.5,81.1667 53.5,81.8333 53.5,82.5C 50.5251,83.6551 47.8584,85.3218 45.5,87.5C 45.1667,87.5 44.8333,87.5 44.5,87.5C 44.8333,86.8333 45.1667,86.1667 45.5,85.5C 48.1841,83.8067 50.8508,82.14 53.5,80.5 Z"/></g>
<g><path style="opacity:1" fill="#3d92d7" d="M 59.5,82.5 C 60.609,82.5569 61.609,82.8902 62.5,83.5C 66.0246,84.7589 69.0246,86.7589 71.5,89.5C 70.8333,89.5 70.1667,89.5 69.5,89.5C 67.8333,88.8333 66.1667,88.1667 64.5,87.5C 62.6397,86.0613 60.973,84.3947 59.5,82.5 Z"/></g>
<g><path style="opacity:1" fill="#2d5da2" d="M 53.5,80.5 C 53.8333,80.5 54.1667,80.5 54.5,80.5C 55.1667,80.5 55.8333,80.5 56.5,80.5C 56.9731,81.9063 57.9731,82.573 59.5,82.5C 60.973,84.3947 62.6397,86.0613 64.5,87.5C 60.7677,86.0148 57.1011,84.3481 53.5,82.5C 53.5,81.8333 53.5,81.1667 53.5,80.5 Z"/></g>
<g><path style="opacity:1" fill="#505dc3" d="M 26.5,85.5 C 27.9063,85.9731 28.573,86.9731 28.5,88.5C 27.0937,88.0269 26.427,87.0269 26.5,85.5 Z"/></g>
<g><path style="opacity:1" fill="#5e62d4" d="M 45.5,85.5 C 45.1667,86.1667 44.8333,86.8333 44.5,87.5C 39.84,90.4998 34.84,91.1665 29.5,89.5C 28.8333,89.5 28.5,89.1667 28.5,88.5C 31.8175,89.2209 35.1508,89.3876 38.5,89C 40.8144,87.7327 43.1478,86.566 45.5,85.5 Z"/></g>
<g><path style="opacity:1" fill="#3d56ac" d="M 44.5,87.5 C 44.8333,87.5 45.1667,87.5 45.5,87.5C 42.7062,90.4091 39.2062,91.7424 35,91.5C 32.7047,91.4535 30.8714,90.7868 29.5,89.5C 34.84,91.1665 39.84,90.4998 44.5,87.5 Z"/></g>
<g><path style="opacity:1" fill="#316eb2" d="M 69.5,89.5 C 70.1667,89.5 70.8333,89.5 71.5,89.5C 73.6074,90.4682 75.9407,90.8016 78.5,90.5C 76.0336,91.6341 73.367,91.8007 70.5,91C 69.944,90.6174 69.6107,90.1174 69.5,89.5 Z"/></g>
</svg>
